# xmcd
#
# Track frame offsets:
#	150
#	20633
#	42611
#	62776
#	79225
#	99245
#	116052
#	139052
#	155801
#	186438
#	199512
#	235351
#	248954
#	282047
#	299201
#	312889
#	336407
#	342475
#
# Disc length: 4801 seconds
#
# Revision: 4
# Processed by: cddbd v1.5.2PL0 Copyright (c) Steve Scherf et al.
# Submitted via: EZCDAudioConverter 6.0.0.1
#
DISCID=2212bf12
DTITLE=Various Artist - Akella Presents - Blues Instrumental - vol.20  CD1  N
DTITLE=ew!
DYEAR=2013
DGENRE=Blues
TTITLE0=DANNY JOHNSON - Sundance
TTITLE1=CRAIG CHAQUICO - Born Under a Bad Sign
TTITLE2=MICK CLARKE - New Star over Texas
TTITLE3=BLEU JACKSON - Darkness
TTITLE4=CHRIS AARON BAND - Abigail
TTITLE5=MATT SMITH - Tough Guy
TTITLE6=PHILIP SAYCE - Alchemy
TTITLE7=ROBERT RANDOLPH - Thankful 'N Thoughtful
TTITLE8=PRESTON SHANNON - Midnight In Memphis
TTITLE9=JOE BONAMASSA - Revenge of the 10 Gallon Hat
TTITLE10=GWYN ASHTON - Rest In Paradise
TTITLE11=STEVE HACKETT - A Blue Part Of Town
TTITLE12=GREGOR HILDEN - Sweet ‘n‘Sour
TTITLE13=PETER FRAMPTON - Double Nickels
TTITLE14=TOSCHO - Mara's Dream
TTITLE15=AMAR SUNDY - One more time
TTITLE16=SONNY BLACK and The DUKES - Raggin' the Strings
TTITLE17=RAY BAILEY - Cruisin' For A Bluesin'
EXTD=
EXTT0=
EXTT1=
EXTT2=
EXTT3=
EXTT4=
EXTT5=
EXTT6=
EXTT7=
EXTT8=
EXTT9=
EXTT10=
EXTT11=
EXTT12=
EXTT13=
EXTT14=
EXTT15=
EXTT16=
EXTT17=
PLAYORDER=
